<svg width="512" height="512" viewBox="0 0 512 512" fill="none" xmlns="http://www.w3.org/2000/svg">
<rect width="512" height="512" fill="white"/>
<path d="M113.375 231.844H124.469L107.562 260.844V276H97.625V260.844L80.75 231.844H92L102.688 250.656L113.375 231.844ZM144.656 243.375H154V276H144.656V272.75C142.031 275.438 138.74 276.781 134.781 276.781C130.302 276.781 126.552 275.146 123.531 271.875C120.531 268.604 119.031 264.542 119.031 259.688C119.031 254.833 120.531 250.771 123.531 247.5C126.552 244.229 130.302 242.594 134.781 242.594C138.74 242.594 142.031 243.938 144.656 246.625V243.375ZM136.656 267.75C138.948 267.75 140.854 266.979 142.375 265.438C143.896 263.896 144.656 261.979 144.656 259.688C144.656 257.396 143.896 255.479 142.375 253.938C140.854 252.396 138.948 251.625 136.656 251.625C134.385 251.625 132.49 252.396 130.969 253.938C129.469 255.479 128.719 257.396 128.719 259.688C128.719 261.979 129.469 263.896 130.969 265.438C132.49 266.979 134.385 267.75 136.656 267.75ZM179.562 242.844H180.969V252.438H179.562C176.75 252.438 174.573 253.188 173.031 254.688C171.51 256.188 170.75 258.219 170.75 260.781V276H161.406V243.375H170.75V247.062C173.167 244.25 176.104 242.844 179.562 242.844ZM208.844 243.375H218.188V276H208.844V272.75C206.219 275.438 202.927 276.781 198.969 276.781C194.49 276.781 190.74 275.146 187.719 271.875C184.719 268.604 183.219 264.542 183.219 259.688C183.219 254.833 184.719 250.771 187.719 247.5C190.74 244.229 194.49 242.594 198.969 242.594C202.927 242.594 206.219 243.938 208.844 246.625V243.375ZM200.844 267.75C203.135 267.75 205.042 266.979 206.562 265.438C208.083 263.896 208.844 261.979 208.844 259.688C208.844 257.396 208.083 255.479 206.562 253.938C205.042 252.396 203.135 251.625 200.844 251.625C198.573 251.625 196.677 252.396 195.156 253.938C193.656 255.479 192.906 257.396 192.906 259.688C192.906 261.979 193.656 263.896 195.156 265.438C196.677 266.979 198.573 267.75 200.844 267.75ZM261.344 276.781C258.073 276.781 254.99 276.198 252.094 275.031C249.198 273.844 246.719 272.24 244.656 270.219C242.594 268.198 240.969 265.781 239.781 262.969C238.594 260.135 238 257.115 238 253.906C238 250.698 238.594 247.688 239.781 244.875C240.969 242.042 242.594 239.615 244.656 237.594C246.719 235.573 249.198 233.979 252.094 232.812C254.99 231.646 258.073 231.062 261.344 231.062C265.448 231.062 269.198 231.948 272.594 233.719C276.01 235.469 278.771 237.896 280.875 241L272.281 246.312C271.073 244.542 269.51 243.146 267.594 242.125C265.677 241.104 263.594 240.594 261.344 240.594C257.594 240.594 254.458 241.865 251.938 244.406C249.417 246.927 248.156 250.094 248.156 253.906C248.156 257.719 249.417 260.896 251.938 263.438C254.458 265.958 257.594 267.219 261.344 267.219C263.615 267.219 265.698 266.719 267.594 265.719C269.51 264.698 271.073 263.302 272.281 261.531L280.875 266.844C278.771 269.948 276.01 272.385 272.594 274.156C269.198 275.906 265.448 276.781 261.344 276.781ZM305.094 242.594C308.844 242.594 311.865 243.729 314.156 246C316.448 248.25 317.594 251.25 317.594 255V276H308.25V258.156C308.25 256.177 307.677 254.594 306.531 253.406C305.385 252.219 303.865 251.625 301.969 251.625C299.948 251.625 298.312 252.24 297.062 253.469C295.812 254.677 295.188 256.281 295.188 258.281V276H285.844V229.906H295.188V246.812C297.812 244 301.115 242.594 305.094 242.594ZM357.031 259.812C357.031 260.938 356.969 261.917 356.844 262.75H332.531C333.115 264.583 334.146 266.021 335.625 267.062C337.104 268.104 338.865 268.625 340.906 268.625C342.656 268.625 344.25 268.281 345.688 267.594C347.125 266.906 348.26 266.042 349.094 265L355.375 270.438C353.604 272.438 351.448 274 348.906 275.125C346.365 276.229 343.615 276.781 340.656 276.781C335.469 276.781 331.135 275.135 327.656 271.844C324.198 268.531 322.469 264.417 322.469 259.5C322.469 256.354 323.219 253.49 324.719 250.906C326.24 248.323 328.333 246.292 331 244.812C333.667 243.333 336.625 242.594 339.875 242.594C344.771 242.594 348.854 244.229 352.125 247.5C355.396 250.771 357.031 254.875 357.031 259.812ZM339.75 250.656C338 250.656 336.469 251.188 335.156 252.25C333.844 253.292 332.948 254.719 332.469 256.531H347.125C346.604 254.698 345.688 253.26 344.375 252.219C343.062 251.177 341.521 250.656 339.75 250.656ZM378.094 276.781C373.073 276.781 368.875 275.146 365.5 271.875C362.146 268.604 360.469 264.542 360.469 259.688C360.469 254.833 362.146 250.771 365.5 247.5C368.875 244.229 373.073 242.594 378.094 242.594C381.344 242.594 384.292 243.323 386.938 244.781C389.583 246.219 391.667 248.198 393.188 250.719L385.062 255.656C384.375 254.427 383.417 253.448 382.188 252.719C380.958 251.99 379.594 251.625 378.094 251.625C375.802 251.625 373.896 252.396 372.375 253.938C370.854 255.479 370.094 257.396 370.094 259.688C370.094 261.979 370.854 263.896 372.375 265.438C373.896 266.979 375.802 267.75 378.094 267.75C379.594 267.75 380.958 267.385 382.188 266.656C383.417 265.927 384.375 264.948 385.062 263.719L393.188 268.625C391.667 271.167 389.583 273.167 386.938 274.625C384.292 276.062 381.344 276.781 378.094 276.781ZM418.125 276L409.562 265.5L407.125 268.125V276H397.781V229.906H407.125V255.531L417.875 243.375H429.969L416.156 258.406L430.406 276H418.125Z" fill="black"/>
</svg>
